<!-- icon666.com - MILLIONS vector ICONS FREE --><svg id="Glyph" viewBox="0 0 64 64" xmlns="http://www.w3.org/2000/svg"><path d="m31.99988 28.096c16.62884-.68714 16.63363-24.38688.00012-25.07651a12.53826 12.53826 0 0 0 -.00012 25.07651z" fill="#000000" style="fill: rgb(0, 152, 241);"></path><path d="m51.49 33.6922-5.9835-4.72484a4.23259 4.23259 0 0 0 -5.238.029 13.40851 13.40851 0 0 1 -16.52725.00012 4.24637 4.24637 0 0 0 -5.24765-.02907l-5.9836 4.7151a8.083 8.083 0 0 0 -3.108 6.39987v8.44272a8.13049 8.13049 0 0 0 5.58656 7.73564 53.831 53.831 0 0 0 34.02272.0003 8.13114 8.13114 0 0 0 5.58656-7.73594v-8.44272a8.0503 8.0503 0 0 0 -3.10784-6.39018z" fill="#000000" style="fill: rgb(0, 152, 241);"></path></svg>