<!-- icon666.com - MILLIONS vector ICONS FREE --><svg id="Layer_1" viewBox="0 0 512 512" xmlns="http://www.w3.org/2000/svg" data-name="Layer 1"><path d="m437.021 74.122c-54.695-24.143-121.635-33.093-181.021-33.093s-126.325 8.95-181.02 33.093c-31.256 13.798-74.98 40.771-74.98 79.912 0 12.832 15.881 47.152 21.183 59.306l.338.775a26 26 0 0 0 30.858 14.858l71.778-19.231a26.3 26.3 0 0 0 18.563-32.156l-1.313-4.906a43.465 43.465 0 0 1 35.844-54.274 571.772 571.772 0 0 1 157.5 0 43.464 43.464 0 0 1 35.849 54.273l-1.313 4.906a26.3 26.3 0 0 0 18.56 32.157l71.779 19.231a26.971 26.971 0 0 0 6.979.933 25.97 25.97 0 0 0 23.878-15.794l.343-.785c5.3-12.146 21.179-46.474 21.179-59.293 0-39.142-43.721-66.114-74.979-79.912zm30.433 267.03c11.02 6.931 14.9 19.28 14.9 31.793v69.738a28.34 28.34 0 0 1 -28.3 28.288h-396.111a28.34 28.34 0 0 1 -28.294-28.288v-69.738c0-12.513 3.879-24.863 14.9-31.793l157.1-98.792v-40.715a12.44 12.44 0 0 1 12.413-12.414h83.885a12.438 12.438 0 0 1 12.414 12.414v40.715l157.1 98.792zm-211.454-69.966a80.415 80.415 0 1 0 80.418 80.414 80.505 80.505 0 0 0 -80.418-80.414zm0 126.7a46.28 46.28 0 1 0 -46.285-46.28 46.33 46.33 0 0 0 46.285 46.275z" fill-rule="evenodd" fill="#000000" style="fill: rgb(0, 152, 241);"></path></svg>