<!-- icon666.com - MILLIONS vector ICONS FREE --><svg viewBox="0 0 32 32" xmlns="http://www.w3.org/2000/svg"><g id="Ball"><path d="m10.75 12.17-5.33-5.33a13.9021 13.9021 0 0 0 -3.38 8.11 11.9885 11.9885 0 0 0 8.71-2.78z" fill="#000000" style="fill: rgb(0, 152, 241);"></path><path d="m12.16 13.58a13.8937 13.8937 0 0 1 -10.12 3.37 13.8378 13.8378 0 0 0 3.38 8.21l9.16-9.16z" fill="#000000" style="fill: rgb(0, 152, 241);"></path><path d="m18.42 19.84-2.42-2.42-9.16 9.16a13.7975 13.7975 0 0 0 8.2 3.37 13.9558 13.9558 0 0 1 3.38-10.11z" fill="#000000" style="fill: rgb(0, 152, 241);"></path><path d="m17.05 29.95a13.9536 13.9536 0 0 0 8.11-3.37l-5.33-5.33a11.951 11.951 0 0 0 -2.78 8.7z" fill="#000000" style="fill: rgb(0, 152, 241);"></path><path d="m21.25 19.83 5.33 5.33a13.9021 13.9021 0 0 0 3.38-8.11 12.01 12.01 0 0 0 -8.71 2.78z" fill="#000000" style="fill: rgb(0, 152, 241);"></path><path d="m14.95 2.04a13.9021 13.9021 0 0 0 -8.11 3.38l5.33 5.33a11.9885 11.9885 0 0 0 2.78-8.71z" fill="#000000" style="fill: rgb(0, 152, 241);"></path><path d="m13.58 12.16 2.42 2.42 9.16-9.16a13.81 13.81 0 0 0 -8.2-3.38 13.936 13.936 0 0 1 -3.38 10.12z" fill="#000000" style="fill: rgb(0, 152, 241);"></path><path d="m19.84 18.42a13.936 13.936 0 0 1 10.12-3.38 13.81 13.81 0 0 0 -3.38-8.2l-9.16 9.16z" fill="#000000" style="fill: rgb(0, 152, 241);"></path></g></svg>