<!-- icon666.com - MILLIONS vector ICONS FREE --><svg version="1.1" id="Capa_1" xmlns="http://www.w3.org/2000/svg" xmlns:xlink="http://www.w3.org/1999/xlink" x="0px" y="0px" viewBox="0 0 512 512" style="enable-background:new 0 0 512 512;" xml:space="preserve"><g><g><path d="M67.713,0C48.389,0,32.656,15.733,32.656,35.057v441.897c0,19.324,15.733,35.046,35.057,35.046h20.026V0H67.713z" fill="#000000" style="fill: rgb(0, 152, 241);"></path></g></g><g><g><path d="M444.287,0h-31.838v111.077c0,8.276-4.249,15.733-11.378,19.951c-3.676,2.178-7.744,3.272-11.813,3.272 c-3.814,0-7.649-0.967-11.165-2.89l-34.409-18.888l-34.419,18.888c-7.266,3.984-15.85,3.835-22.978-0.382 c-7.118-4.217-11.378-11.675-11.378-19.951V0H119.609v512h324.679c19.324,0,35.057-15.722,35.057-35.046V35.057 C479.344,15.733,463.611,0,444.287,0z" fill="#000000" style="fill: rgb(0, 152, 241);"></path></g></g><g><g><path d="M306.779,0.478v95.939l25.74-14.129c3.495-1.912,7.33-2.868,11.165-2.868c3.824,0,7.659,0.956,11.154,2.868l25.74,14.129 V0.478H306.779z" fill="#000000" style="fill: rgb(0, 152, 241);"></path></g></g></svg>