<!-- icon666.com - MILLIONS vector ICONS FREE --><svg viewBox="0 0 512 512.00021" xmlns="http://www.w3.org/2000/svg"><path d="m422.976562 342.515625-255.359374-259.953125-84.65625 84.660156 256.066406 259.242188zm0 0" fill="#000000" style="fill: rgb(0, 152, 241);"></path><path d="m146.46875 61.292969-44.03125-44.285157c-22.632812-22.660156-62.15625-22.691406-84.84375 0-23.507812 23.503907-23.40625 61.464844 0 84.84375l44.15625 44.160157zm0 0" fill="#000000" style="fill: rgb(0, 152, 241);"></path><path d="m441.316406 366.597656-76.363281 76.363282 92.265625 35.46875 33.570312 33.570312 21.210938-21.210938-38.722656-38.722656zm0 0" fill="#000000" style="fill: rgb(0, 152, 241);"></path><path d="m503.332031 51.175781c-6.601562 6.601563-59.703125 59.699219-59.703125 59.699219l-42.597656-42.296875c6.601562-6.304687 59.699219-59.703125 59.699219-59.703125-34.199219-16.5-75.296875-9.597656-102 17.402344-45.300781 45.296875-18 98.398437-17.699219 102.300781-.953125.949219-19.183594 19.667969-43.234375 43.683594l42.066406 42.832031c23.019531-22.980469 40.910157-41.363281 43.46875-43.917969 3.898438.300781 57.296875 27.601563 102.597657-17.699219 26.703124-26.699218 33.601562-67.800781 17.402343-102.300781zm0 0" fill="#000000" style="fill: rgb(0, 152, 241);"></path><path d="m51.386719 503.210938c34.199219 16.503906 75.300781 9.300781 102.300781-17.699219 45.902344-45.898438 18.300781-98.699219 18-102.898438.925781-.84375 18.375-18.089843 41.363281-41.003906l-42.132812-42.65625c-21.972657 21.941406-39.050781 38.878906-41.53125 41.359375-4.199219-.300781-57-27.898438-102.898438 18-27 27-34.199219 68.101562-17.699219 102.300781 6.597657-6.300781 60-60 60-60l42.597657 42.597657c-6.597657 6.300781-60 60-60 60zm0 0" fill="#000000" style="fill: rgb(0, 152, 241);"></path></svg>